<?xml version="1.0" standalone="no"?>
<!DOCTYPE svg PUBLIC "-//W3C//DTD SVG 20010904//EN"
 "http://www.w3.org/TR/2001/REC-SVG-20010904/DTD/svg10.dtd">
<svg version="1.0" xmlns="http://www.w3.org/2000/svg"
 width="300.000000pt" height="300.000000pt" viewBox="0 0 300.000000 300.000000"
 preserveAspectRatio="xMidYMid meet">

<g transform="translate(0.000000,300.000000) scale(0.100000,-0.100000)"
fill="#000000" stroke="none">
<path d="M1446 2654 c-155 -37 -287 -143 -346 -277 l-20 -44 -77 20 c-66 17
-109 20 -288 21 -196 0 -217 -2 -307 -26 -247 -67 -376 -198 -386 -392 -5
-106 20 -176 88 -246 60 -61 125 -91 200 -91 107 0 195 51 244 141 24 45 28
60 24 112 -4 51 -9 65 -32 85 -36 31 -89 31 -110 1 -9 -13 -16 -43 -16 -71 0
-94 -41 -147 -116 -147 -131 0 -197 171 -123 318 53 107 163 182 318 216 94
21 287 22 401 1 47 -8 102 -18 123 -21 l39 -7 -7 -52 c-13 -109 44 -276 123
-362 l40 -43 -37 0 c-159 -1 -347 -111 -449 -263 -79 -119 -94 -174 -100 -359
-2 -87 -6 -158 -9 -158 -3 0 -37 30 -76 66 -86 82 -160 119 -223 111 -125 -14
-192 -167 -129 -294 33 -65 152 -180 265 -255 113 -75 317 -181 335 -174 8 3
31 36 52 74 l37 69 60 -49 c187 -151 474 -237 751 -225 224 9 348 60 485 197
132 132 190 268 190 451 0 103 -27 218 -70 297 -16 30 -29 57 -27 58 1 2 48
-2 104 -9 92 -10 109 -9 186 10 120 30 207 74 281 143 88 83 128 161 134 261
5 93 -12 153 -66 224 -102 134 -291 154 -418 42 -55 -48 -83 -105 -84 -165 0
-72 64 -116 115 -78 13 9 21 33 26 79 10 81 22 102 75 127 50 25 87 25 139 1
166 -75 167 -292 2 -375 -75 -37 -180 -44 -377 -22 -251 27 -302 29 -450 16
-168 -13 -306 -46 -392 -92 -175 -93 -284 -293 -249 -455 27 -121 113 -225
213 -259 150 -50 333 43 346 176 4 43 1 55 -18 75 -47 50 -90 28 -135 -70 -37
-82 -66 -105 -132 -105 -111 0 -194 138 -164 273 24 106 96 172 221 201 169
38 435 40 507 2 22 -11 40 -38 71 -104 50 -108 61 -154 62 -254 0 -228 -188
-448 -440 -515 -95 -25 -290 -23 -393 5 -167 45 -328 149 -425 273 l-44 57 26
82 c15 46 31 116 38 157 19 133 -19 241 -103 283 -46 24 -46 24 5 130 17 35
58 93 91 129 98 105 204 142 318 110 31 -8 43 -7 63 6 30 19 31 40 2 63 -75
60 -102 92 -133 156 -41 81 -54 175 -36 242 l11 42 63 -20 c148 -46 405 -62
541 -33 190 40 281 180 210 323 -64 129 -228 202 -449 201 -60 0 -136 -7 -169
-15z m369 -116 c76 -25 148 -71 163 -103 7 -14 12 -42 12 -62 0 -51 -65 -115
-139 -137 -71 -21 -261 -21 -372 0 -99 18 -187 42 -193 53 -7 11 70 130 112
174 95 100 254 128 417 75z m-915 -1316 c84 -42 102 -140 54 -294 -26 -84 -97
-232 -154 -321 -37 -58 -36 -59 -184 13 -179 86 -307 183 -348 264 -38 74 -5
172 70 203 66 28 126 1 238 -109 l81 -79 11 84 c27 210 113 299 232 239z"/>
</g>
</svg>
