<svg id="visual" viewBox="0 0 600 900" width="600" height="900" xmlns="http://www.w3.org/2000/svg" xmlns:xlink="http://www.w3.org/1999/xlink" version="1.1"><path d="M457 900L465.2 878.5C473.3 857 489.7 814 483.3 771.2C477 728.3 448 685.7 451 642.8C454 600 489 557 496.3 514.2C503.7 471.3 483.3 428.7 463.3 385.8C443.3 343 423.7 300 424.3 257.2C425 214.3 446 171.7 460.2 128.8C474.3 86 481.7 43 485.3 21.5L489 0L600 0L600 21.5C600 43 600 86 600 128.8C600 171.7 600 214.3 600 257.2C600 300 600 343 600 385.8C600 428.7 600 471.3 600 514.2C600 557 600 600 600 642.8C600 685.7 600 728.3 600 771.2C600 814 600 857 600 878.5L600 900Z" fill="#0066FF" stroke-linecap="round" stroke-linejoin="miter"></path></svg>